<?xml version="1.0" encoding="utf-8"?>

<!DOCTYPE svg PUBLIC "-//W3C//DTD SVG 1.1//EN" "http://www.w3.org/Graphics/SVG/1.1/DTD/svg11.dtd">
<!-- Uploaded to: SVG Repo, www.svgrepo.com, Generator: SVG Repo Mixer Tools -->
<svg height="800px" width="800px" version="1.1" id="_x32_" xmlns="http://www.w3.org/2000/svg" xmlns:xlink="http://www.w3.org/1999/xlink" 
	 viewBox="0 0 512 512"  xml:space="preserve">
<style type="text/css">
	.st0{fill:#000000;}
</style>
<g>
	<path class="st0" d="M13.104,112.762c-0.014-0.009-0.014-0.009-0.014-0.027l-0.013-0.009L13.104,112.762z"/>
	<path class="st0" d="M139.518,181.859l0.258,0.08c-0.013-0.018-0.026-0.018-0.04-0.027L139.518,181.859z"/>
	<path class="st0" d="M84.393,163.101c-0.058-0.026-0.112-0.054-0.178-0.071l-0.303-0.116L84.393,163.101z"/>
	<path class="st0" d="M512,64.329c0-9.116-1.082-18.624-3.154-28.605l-0.107-0.526l-0.606-1.711h-0.014
		c-1.274-5.106-4.126-9.544-8.033-12.502c-4.166-3.208-9.321-4.812-14.584-4.812c-1.813,0-3.662,0.187-5.498,0.57
		c-5.73,1.185-10.64,4.331-14.053,8.59c-3.426,4.233-5.427,9.588-5.427,15.292c0,1.631,0.165,3.298,0.504,4.955
		c1.51,7.272,2.125,13.447,2.125,18.731c-0.014,5.258-0.575,9.464-1.546,13.055c-0.976,3.59-2.331,6.612-4.158,9.561
		c-3.533,5.686-9.182,11.139-18.027,16.593l-0.067,0.045l-0.04,0.026c-0.606,0.383-1.261,0.785-1.907,1.167V86.278
		c0-6.185-2.535-11.862-6.594-15.89c-4.042-4.054-9.705-6.567-15.862-6.567c-6.18-0.009-11.856,2.513-15.888,6.567
		c-4.055,4.046-6.576,9.723-6.576,15.89v37.56c-8.613,2.976-17.809,6.006-27.505,9.133V117.93c0-6.176-2.522-11.861-6.576-15.889
		c-4.046-4.054-9.709-6.576-15.875-6.576c-6.171,0-11.834,2.522-15.875,6.576c-4.059,4.028-6.581,9.713-6.581,15.889v34.976
		c-16.984,10.978-28.899,23.936-36.357,36.661c-3.057,5.178-5.374,10.23-7.156,14.98c-7.552,0-14.846,0-20.562,0
		c-5.716,0-13.01,0-20.576,0c-1.782-4.75-4.099-9.802-7.142-14.98c-7.472-12.725-19.386-25.682-36.358-36.661V117.93
		c0-6.176-2.535-11.861-6.594-15.889c-4.045-4.054-9.705-6.576-15.862-6.576c-6.166,0-11.83,2.522-15.875,6.576
		c-4.055,4.028-6.594,9.713-6.594,15.889v15.042c-9.691-3.127-18.887-6.158-27.5-9.133v-37.56c0-6.167-2.508-11.844-6.564-15.89
		c-4.045-4.054-9.722-6.576-15.888-6.567c-6.171,0-11.834,2.513-15.875,6.567c-4.046,4.028-6.581,9.704-6.581,15.89v18.481
		c-0.66-0.401-1.332-0.784-1.947-1.184l-0.066-0.054C63.746,98.067,58.096,92.64,54.55,86.946c-1.813-2.958-3.168-5.989-4.157-9.579
		c-0.971-3.609-1.533-7.816-1.56-13.055c0-5.284,0.629-11.459,2.121-18.749c0.343-1.639,0.508-3.306,0.508-4.937
		c0-5.703-2-11.076-5.414-15.309c-3.413-4.242-8.336-7.388-14.066-8.581c-1.862-0.375-3.742-0.579-5.605-0.579
		c-5.208,0-10.337,1.533-14.52,4.688c-4.207,3.127-7.321,7.94-8.444,13.518v0.045L3.141,35.76l0.014-0.036
		C1.082,45.705,0,55.214,0,64.329v0.232c-0.014,17.92,4.442,34.423,13.09,48.174c6.43,10.31,14.806,18.785,24.1,25.745
		c13.915,10.434,29.876,17.884,47.025,24.55l0.192,0.071c17.216,6.638,35.85,12.476,55.329,18.811l0.04,0.009v0.018
		c14.383,4.732,24.431,10.337,31.653,15.96c4.196,3.288,7.431,6.567,10.051,9.776c-3.662,1.372-7.498,3.261-11.241,5.711
		c-12.052-4-26.145-8.349-38.893-12.101c-12.886-3.788-24.336-6.942-31.149-8.528c-2.589-0.606-5.195-0.918-7.77-0.918
		c-5.855,0-11.737,1.613-16.41,5.561c-2.317,1.96-4.264,4.518-5.552,7.45c-1.292,2.932-1.92,6.22-1.92,9.633
		c0.013,5.507,1.577,11.379,4.634,17.742c5.294,10.934,11.487,23.811,20.919,35.288c9.392,11.468,22.331,21.547,40.14,25.958
		c2.522,0.632,4.991,1.105,7.432,1.479c-0.949,4.91-1.813,9.491-2.54,13.358c-1.122,6.015-1.915,10.337-2.218,12.119
		c-0.397,2.361-0.575,4.678-0.575,6.924c0,7.966,2.246,15.024,4.946,21.102c2.717,6.077,5.938,11.317,8.283,15.692
		c0.093,0.179,0.383,0.766,0.739,1.55c1.386,2.986,3.921,8.938,6.938,16.148c4.522,10.845,10.159,24.621,15.011,36.437
		c2.424,5.908,4.647,11.327,6.443,15.658c1.795,4.339,3.122,7.512,3.907,9.223c1.453,3.208,3.756,7.788,5.756,11.683
		c1.083,2.139,2.058,4.018,2.727,5.302c0,0.82,0,1.595,0,2.236c0,0.437,0,0.847,0,1.221c0,2.157,0.25,4.893,0.949,8.092
		c1.083,4.74,3.137,10.47,7.65,15.47c2.246,2.486,5.138,4.722,8.635,6.274c3.498,1.559,7.552,2.405,11.954,2.405
		c18.37,0,35.725,0,35.725,0c0.013,0,4.331,0,10.965,0c6.639,0,15.577,0,24.746,0c5.881,0.028,11.13-1.532,15.26-4.17
		c3.096-1.96,5.538-4.456,7.401-7.04c2.798-3.921,4.358-8.065,5.293-11.736c0.931-3.69,1.234-6.88,1.248-9.295
		c0-0.374,0-0.784,0-1.221c0-0.641,0-1.416,0-2.236c0.655-1.283,1.631-3.163,2.727-5.302c1.987-3.895,4.29-8.474,5.756-11.683
		c0.562-1.23,1.386-3.164,2.468-5.774c3.796-9.054,10.694-25.986,17.052-41.437c3.181-7.717,6.224-15.069,8.666-20.834
		c1.22-2.887,2.29-5.383,3.154-7.298c0.833-1.89,1.506-3.334,1.698-3.672c2.344-4.376,5.552-9.615,8.283-15.692
		c2.714-6.077,4.946-13.136,4.946-21.102c0-2.263-0.178-4.563-0.575-6.924c-0.289-1.782-1.096-6.113-2.218-12.119
		c-0.726-3.867-1.591-8.448-2.54-13.358c2.429-0.374,4.91-0.847,7.432-1.479c17.796-4.411,30.748-14.49,40.14-25.958
		c9.419-11.478,15.626-24.355,20.919-35.288c3.057-6.363,4.62-12.235,4.634-17.724c0-3.431-0.628-6.702-1.92-9.642
		c-1.934-4.429-5.347-7.896-9.268-9.99c-3.921-2.13-8.292-3.03-12.694-3.03c-2.589,0-5.195,0.312-7.784,0.918
		c-6.817,1.586-18.25,4.74-31.136,8.528c-12.748,3.742-26.827,8.1-38.862,12.101c-3.756-2.468-7.637-4.322-11.286-5.703
		c2.62-3.207,5.854-6.496,10.065-9.784c7.222-5.623,17.256-11.228,31.639-15.96c19.493-6.363,38.14-12.2,55.37-18.838h0.026
		c17.207-6.683,33.23-14.142,47.202-24.621c9.281-6.96,17.672-15.435,24.087-25.745C507.505,99.065,512,82.633,512,64.784V64.329z
		 M180.972,185.664c-8.817-6.862-20.55-13.278-36.358-18.474h-0.014c-19.564-6.362-37.961-12.145-54.505-18.526l-0.099-0.036
		c-16.615-6.434-31.309-13.394-43.482-22.554c-8.091-6.06-15.042-13.162-20.264-21.547l-0.026-0.045
		c-6.938-11.032-10.708-24.542-10.708-39.922v-0.214v-0.018c0-7.878,0.932-16.352,2.825-25.46v-0.053l0.272-1.328
		c0.454-2.068,1.318-3.28,2.566-4.242c1.248-0.944,2.999-1.568,5.196-1.568c0.767,0,1.604,0.071,2.468,0.258
		c2.121,0.436,3.863,1.56,5.124,3.127c1.261,1.56,1.988,3.52,1.988,5.561c0,0.588-0.066,1.194-0.192,1.81
		c-1.684,8.144-2.451,15.389-2.451,21.894v0.018c0.027,6.363,0.726,11.976,2.108,17.065c1.359,5.089,3.418,9.598,5.912,13.652
		l0.04,0.072l-0.013-0.028c5.124,8.252,12.787,15.283,22.986,21.574c0.018,0.018,0.031,0.026,0.045,0.026
		c0.014,0,0.026,0.018,0.026,0.018l0,0c4.496,2.833,9.42,5.382,14.588,7.859l11.104,5.284V86.278c0-3.85,3.096-6.933,6.937-6.933
		c1.974,0,3.644,0.766,4.919,2.014c1.261,1.274,2.014,2.949,2.014,4.92v48.583l5.181,1.827c12.561,4.428,26.31,8.866,40.898,13.572
		l-0.058-0.018c0.357,0.116,1.057,0.419,2.304,0.838l10.212,3.413V117.93c0.014-3.85,3.114-6.951,6.95-6.951
		c1.934,0.018,3.623,0.775,4.91,2.031c1.261,1.292,2.028,2.96,2.028,4.92v43.611l3.756,2.246
		c16.958,10.204,28.106,22.323,34.74,33.63c1.426,2.424,2.616,4.812,3.703,7.13c-8.461,0-15.876,0-20.251,0
		C194.446,198.461,188.934,191.866,180.972,185.664z M335.813,228.179l3.618,2.905l4.278-1.827c1.016-0.437,1.853-0.776,2.646-1.034
		c11.874-3.966,25.967-8.304,38.675-12.048c12.694-3.734,24.086-6.87,30.28-8.314h0.014c1.498-0.338,2.936-0.508,4.25-0.508
		c3.031-0.009,5.196,0.856,6.363,1.872c0.601,0.516,1.029,1.078,1.385,1.862c0.343,0.793,0.615,1.862,0.615,3.413
		c0.014,2.451-0.753,6.166-3.083,10.996c-5.235,10.872-11.01,22.545-18.944,32.17c-3.948,4.794-8.417,9.107-13.63,12.635
		c-5.222,3.547-11.17,6.336-18.286,8.119c-4.553,1.14-8.978,1.728-13.3,1.978l-8.854,0.49l1.671,8.716
		c1.551,8.037,2.99,15.603,4.113,21.565c1.109,5.952,1.92,10.354,2.165,11.807c0.25,1.479,0.356,2.932,0.356,4.376
		c0,4.999-1.412,9.873-3.604,14.792c-2.179,4.901-5.11,9.749-7.77,14.668c-0.37,0.696-0.726,1.434-1.168,2.371
		c-1.59,3.439-4.112,9.392-7.156,16.682c-4.567,10.916-10.212,24.72-15.051,36.518c-2.428,5.917-4.634,11.326-6.416,15.603
		c-1.769,4.278-3.141,7.504-3.702,8.751c-1.234,2.7-3.511,7.263-5.458,11.042c-0.958,1.898-1.849,3.609-2.491,4.856
		c-0.646,1.238-1.043,2.005-1.056,2.005l-0.878,1.694v1.906c0,1.675,0,3.03,0,4.144c0,0.437,0,0.847,0,1.221
		c0,0.909-0.138,2.745-0.593,4.714c-0.642,3.021-2.014,6.309-3.974,8.421c-0.971,1.07-2.067,1.907-3.466,2.522
		c-1.399,0.632-3.168,1.068-5.65,1.068c-9.17,0-18.108,0-24.746,0c-6.634,0-10.952,0-10.965,0c0,0-17.354,0-35.725,0
		c-3.306-0.017-5.334-0.757-6.938-1.755c-1.221-0.766-2.219-1.756-3.096-2.995c-1.332-1.818-2.304-4.215-2.878-6.496
		c-0.593-2.272-0.771-4.464-0.758-5.48c0-0.374,0-0.784,0-1.221c0-1.113,0-2.468,0-4.144v-1.906l-0.891-1.694
		c0,0-0.397-0.767-1.043-2.005c-0.971-1.862-2.477-4.794-4.001-7.798c-1.506-2.994-3.03-6.086-3.948-8.1
		c-0.396-0.882-1.221-2.789-2.277-5.32c-3.743-8.938-10.636-25.896-17.025-41.375c-3.181-7.744-6.238-15.122-8.72-20.977
		c-1.247-2.932-2.343-5.48-3.248-7.539c-0.918-2.058-1.59-3.52-2.236-4.714c-2.647-4.918-5.579-9.766-7.757-14.668
		c-2.193-4.919-3.604-9.776-3.604-14.792c0-1.426,0.107-2.878,0.356-4.376c0.246-1.453,1.056-5.872,2.166-11.807
		c1.123-5.962,2.562-13.528,4.112-21.565l1.671-8.716l-8.853-0.49c-4.322-0.25-8.746-0.838-13.3-1.978
		c-7.116-1.782-13.077-4.572-18.286-8.119c-7.802-5.284-13.986-12.332-19.208-20.201c-5.208-7.842-9.432-16.451-13.354-24.622
		c-2.343-4.83-3.11-8.527-3.096-10.996c0-1.533,0.271-2.602,0.602-3.395c0.534-1.15,1.221-1.881,2.454-2.575
		c1.221-0.678,3.043-1.159,5.307-1.159c1.3,0,2.74,0.17,4.25,0.508c6.193,1.444,17.586,4.58,30.28,8.314
		c12.708,3.743,26.814,8.082,38.675,12.048c0.793,0.258,1.644,0.597,2.66,1.034l4.278,1.827l3.618-2.905
		c3.372-2.7,7.552-4.838,11.321-6.211c1.88-0.686,3.649-1.176,5.102-1.497c1.426-0.312,2.606-0.419,2.976-0.41
		c7.347,0,42.043,0,60.413,0c18.37,0,53.066,0,60.413,0c0.37-0.009,1.537,0.098,2.976,0.41
		C323.792,221.38,330.782,224.106,335.813,228.179z M496.481,64.347v0.437c-0.013,15.283-3.796,28.703-10.72,39.7l-0.026,0.045
		c-5.208,8.385-12.173,15.487-20.25,21.547c-12.187,9.161-26.881,16.12-43.483,22.554h0.014
		c-16.588,6.39-35.012,12.172-54.617,18.561h-0.026c-15.795,5.196-27.54,11.612-36.344,18.474
		c-7.976,6.202-13.474,12.796-17.381,18.883c-4.389,0-11.803,0-20.251,0c1.07-2.317,2.277-4.705,3.689-7.13
		c6.648-11.308,17.796-23.427,34.74-33.63l3.77-2.246V117.93c0-1.96,0.753-3.627,2.027-4.92c1.274-1.256,2.963-2.014,4.91-2.031
		c3.836,0,6.937,3.101,6.937,6.951v36.562l10.226-3.413c1.194-0.41,1.849-0.695,2.232-0.811l0.013-0.008
		c14.587-4.706,28.338-9.143,40.898-13.572l5.165-1.827V86.278c0-1.97,0.77-3.646,2.031-4.92c1.275-1.247,2.946-2.014,4.919-2.014
		c3.827,0,6.924,3.083,6.937,6.933v43.593l11.09-5.284c5.155-2.459,10.105-5.008,14.587-7.859v0.017
		c0.026-0.017,0.04-0.036,0.054-0.044c0.013-0.018,0.031-0.018,0.044-0.027c10.186-6.291,17.836-13.313,22.973-21.565l0.014-0.017
		c2.526-4.064,4.58-8.608,5.939-13.688c1.368-5.088,2.067-10.712,2.081-17.056v-0.018c0-6.505-0.767-13.75-2.438-21.894
		c-0.138-0.633-0.192-1.221-0.192-1.81c0-2.04,0.713-4.001,1.974-5.561c1.275-1.568,3.017-2.691,5.137-3.127l0.018-0.018
		c0.806-0.16,1.573-0.232,2.33-0.232c2.152,0,3.876,0.633,5.137,1.595c1.235,0.981,2.125,2.246,2.58,4.34l0.107,0.553l0.415,1.149
		c1.822,8.93,2.74,17.261,2.74,25.005V64.347z"/>
	<path class="st0" d="M498.923,112.726c-0.013,0.009-0.013,0.009-0.026,0.009c0,0.018,0,0.018,0,0.018L498.923,112.726z"/>
	<path class="st0" d="M110.784,237.634c7.084,12.654,15.105,22.073,28.596,25.459c3.604,0.892,7.36,1.364,11.156,1.417
		c1.988-10.052,3.841-19.177,4.937-23.989c-12.065-4.02-26.226-8.315-37.565-11.531
		C112.659,227.475,108.645,233.811,110.784,237.634z"/>
	<path class="st0" d="M190.307,318.886h-18.918l6.113,8.314c-0.78,1.756-1.235,3.671-1.235,5.712c0,7.752,6.282,14.043,14.04,14.043
		c7.73,0,14.008-6.291,14.008-14.043C204.315,325.168,198.037,318.886,190.307,318.886z"/>
	<path class="st0" d="M262.305,423.486h-12.61c-10.872,0-19.689,8.83-19.689,19.694c0,10.88,8.818,19.711,19.689,19.711h12.61
		c10.872,0,19.689-8.831,19.689-19.711C281.994,432.316,273.176,423.486,262.305,423.486z"/>
	<path class="st0" d="M307.685,332.913c0,7.752,6.278,14.043,14.022,14.043c7.744,0,14.039-6.291,14.039-14.043
		c0-2.041-0.468-3.957-1.261-5.712l6.126-8.314h-18.905C313.963,318.886,307.685,325.168,307.685,332.913z"/>
	<path class="st0" d="M372.634,263.093c13.478-3.386,21.498-12.805,28.569-25.459c2.153-3.823-1.862-10.159-7.111-8.644
		c-11.352,3.216-25.499,7.512-37.578,11.531c1.096,4.812,2.963,13.937,4.937,23.989C365.26,264.457,369.016,263.985,372.634,263.093
		z"/>
</g>
</svg>